# xmcd
#
# Track frame offsets: 
#        150
#        13455
#        27204
#        42313
#        56728
#        72919
#        84965
#        97568
#        110144
#        123980
#        138616
#        153405
#        167621
#        184076
#        199252
#        215159
#
# Disc length: 3091 seconds
#
# Revision: 0
# Processed by: cddbd v1.5.2PL0 Copyright (c) Steve Scherf et al.
# Submitted via: ExactAudioCopy v1.1
#
DISCID=e30c1110
DTITLE=João Carreiro and Capataz - Xique Bacanizado - Ao Vivo
DYEAR=2010
DGENRE=Sertanejo
TTITLE0=Xique Bacanizado
TTITLE1=Descartável
TTITLE2=Bruto Rústico E Sistemático
TTITLE3=Eu Só Sei Te Amar
TTITLE4=Preta
TTITLE5=Lágrimas De Crocodilo
TTITLE6=Tá Bagunçado Mas Tem Gerência
TTITLE7=O Maior Amor Do Mundo (Caroline E João)
TTITLE8=Faculdade Da Pinga
TTITLE9=Prefiro Os Tubarões
TTITLE10=Campo Grande - Cuiabá
TTITLE11=Exagerado
TTITLE12=Ói Nóis Traveis
TTITLE13=O Remédio É Beber
TTITLE14=O Que Será Que Nóis Não Tem?
TTITLE15=É Pra Cabá (Faixa Bônus - Estúdio)
EXTD=
EXTT0=
EXTT1=
EXTT2=
EXTT3=
EXTT4=
EXTT5=
EXTT6=
EXTT7=
EXTT8=
EXTT9=
EXTT10=
EXTT11=
EXTT12=
EXTT13=
EXTT14=
EXTT15=
PLAYORDER=
